<svg width="40" height="45" viewBox="0 0 40 45" fill="none" xmlns="http://www.w3.org/2000/svg">
<path d="M14.3701 42.558H24.5989C30.4248 42.558 33.3044 39.6116 33.2541 33.7187C33.1871 26.9889 33.1536 22.1004 32.9862 18.4342C32.5008 7.65291 29.4706 4.48886 19.4929 4.48886C9.51523 4.48886 6.46835 7.65291 5.98286 18.4342C5.81545 22.1004 5.78197 26.9889 5.715 33.7187C5.66478 39.6116 8.54424 42.558 14.3701 42.558ZM13.8846 35.9119C12.4449 35.9119 11.5242 34.9743 11.5242 33.5682V24.9297C11.5242 23.5067 12.4449 22.5692 13.8846 22.5692H25.1012C26.5242 22.5692 27.4449 23.5067 27.4449 24.9297V33.5682C27.4449 34.9743 26.5242 35.9119 25.1012 35.9119H13.8846ZM11.5242 29.0146H27.4449V27.0223H11.5242V29.0146ZM19.4929 0.571442C16.2786 0.571442 14.0186 2.74778 14.0186 5.71096H16.3791C16.3791 4.08707 17.6514 2.93193 19.4929 2.93193C21.3176 2.93193 22.6068 4.08707 22.6068 5.71096H24.9672C24.9672 2.74778 22.6905 0.571442 19.4929 0.571442Z" fill="#FAF4ED"/>
</svg>
