<svg width="38" height="23" viewBox="0 0 38 23" fill="none" xmlns="http://www.w3.org/2000/svg">
<path d="M2.53261 19.225C3.73273 19.225 4.65133 18.3064 4.65133 17.136V5.93488C4.65133 4.74959 3.73273 3.81617 2.53261 3.81617C1.34732 3.81617 0.428711 4.74959 0.428711 5.93488V17.136C0.428711 18.3064 1.34732 19.225 2.53261 19.225ZM9.57032 22.4995C11.5409 22.4995 12.9188 21.1808 12.9188 19.3139V3.77171C12.9188 1.89006 11.5409 0.571411 9.57032 0.571411C7.61457 0.571411 6.23667 1.89006 6.23667 3.77171V19.3139C6.23667 21.1808 7.61457 22.4995 9.57032 22.4995ZM14.6375 14.3949H23.8383V8.67589H14.6375V14.3949ZM28.9054 22.4995C30.876 22.4995 32.254 21.1808 32.254 19.3139V3.77171C32.254 1.89006 30.876 0.571411 28.9054 0.571411C26.9498 0.571411 25.5718 1.89006 25.5718 3.77171V19.3139C25.5718 21.1808 26.9498 22.4995 28.9054 22.4995ZM35.7951 19.225C36.9804 19.225 37.9137 18.3064 37.9137 17.136V5.93488C37.9137 4.74959 36.9804 3.81617 35.7951 3.81617C34.6098 3.81617 33.6911 4.74959 33.6911 5.93488V17.136C33.6911 18.3064 34.6098 19.225 35.7951 19.225Z" fill="#FAF4ED"/>
</svg>
