<svg width="40" height="40" viewBox="0 0 40 40" fill="none" xmlns="http://www.w3.org/2000/svg">
<path d="M10.9041 37.3214H28.6831C32.1318 37.3214 33.8728 35.5636 33.8728 32.0814V6.68527C33.8728 3.18639 32.1485 1.42857 28.6831 1.42857H24.4309C23.8616 1.42857 23.4766 1.83036 23.4766 2.43304C23.4766 2.51674 23.4766 2.60045 23.4766 2.66741C23.4766 4.84375 22.0034 6.14956 19.7936 6.14956C17.5838 6.14956 16.1106 4.84375 16.1106 2.66741C16.1106 2.60045 16.1106 2.51674 16.1106 2.43304C16.1106 1.83036 15.7255 1.42857 15.1563 1.42857H10.9041C7.43868 1.42857 5.71436 3.18639 5.71436 6.68527V32.0814C5.71436 35.5636 7.45543 37.3214 10.9041 37.3214ZM13.4487 13.9007C12.8461 13.9007 12.4108 13.4487 12.4108 12.846C12.4108 12.2768 12.8461 11.8248 13.4487 11.8248H26.1552C26.7412 11.8248 27.1764 12.2768 27.1764 12.846C27.1764 13.4487 26.7412 13.9007 26.1552 13.9007H13.4487ZM13.4487 19.8437C12.8461 19.8437 12.4108 19.3917 12.4108 18.8226C12.4108 18.2366 12.8461 17.7846 13.4487 17.7846H19.4588C20.0615 17.7846 20.4968 18.2366 20.4968 18.8226C20.4968 19.3917 20.0615 19.8437 19.4588 19.8437H13.4487Z" fill="#FAF4ED"/>
</svg>
