<svg width="39" height="37" viewBox="0 0 39 37" fill="none" xmlns="http://www.w3.org/2000/svg">
<g clip-path="url(#clip0_80_1122)">
<path d="M9.56101 1.70089C8.7407 3.59263 8.35566 5.48437 8.35566 7.32588C8.35566 13.4364 12.6748 18.442 19.4047 18.442C26.1347 18.442 30.4539 13.4364 30.4539 7.32588C30.4539 5.48437 30.0689 3.59263 29.2653 1.70089C28.897 0.897319 27.9427 0.780131 27.3066 1.43303L23.5566 5.25L20.359 1.11495C19.84 0.44531 18.9694 0.44531 18.4673 1.11495L15.2697 5.25L11.503 1.43303C10.8668 0.780131 9.91257 0.897319 9.56101 1.70089ZM18.0654 35.4844C18.0654 36.2377 18.6514 36.74 19.4047 36.74C28.0599 36.74 36.0119 31.3996 38.6236 23.8996C38.9919 22.8783 38.6067 22.2254 37.5186 22.2254C28.9639 22.2254 22.8031 27.2477 20.3256 33.5926L20.7609 34.1619V16.7511H18.0654V35.4844ZM15.772 29.0893C12.6246 25.0044 7.58556 22.2254 1.2407 22.2254C0.152528 22.2254 -0.232516 22.8783 0.135787 23.8996C2.37909 30.3951 8.60677 35.2834 15.9059 36.4386C15.8221 36.154 15.772 35.8191 15.772 35.4844V29.0893Z" fill="#FAF4ED"/>
</g>
<defs>
<clipPath id="clip0_80_1122">
<rect width="38.7593" height="36.3114" fill="white" transform="translate(0 0.42857)"/>
</clipPath>
</defs>
</svg>
